<svg viewBox="0 0 400 300" xmlns="http://www.w3.org/2000/svg"><path d="m264.08 176.18v30.4c0 8.58-28.38 15.53-63.39 15.53s-63.38-7-63.38-15.53v-30.4z" fill="#68e1fd"/><path d="m200.69 223.11c-31.64 0-64.38-6.18-64.38-16.53v-30.4a1 1 0 0 1 1-1h126.77a1 1 0 0 1 1 1v30.4c0 10.35-32.74 16.53-64.39 16.53zm-62.38-45.93v29.4c0 7 25.07 14.53 62.38 14.53s62.39-7.51 62.39-14.53v-29.4z" fill="#093f68"/><ellipse cx="200.69" cy="176.18" fill="#093f68" rx="63.38" ry="15.54"/><path d="m200.69 192.71c-31.65 0-64.38-6.18-64.38-16.53s32.73-16.54 64.38-16.54 64.39 6.19 64.39 16.54-32.74 16.53-64.39 16.53zm0-31.07c-37.31 0-62.38 7.52-62.38 14.54s25.07 14.53 62.38 14.53 62.39-7.51 62.39-14.53-25.08-14.54-62.39-14.54z" fill="#093f68"/><path d="m254.61 206a1 1 0 0 1 -1-1v-11.85a1 1 0 1 1 2 0v11.85a1 1 0 0 1 -1 1z" fill="#093f68"/><path d="m264.08 134.67v30.4c0 8.58-28.38 15.54-63.39 15.54s-63.38-7-63.38-15.54v-30.4z" fill="#68e1fd"/><g fill="#093f68"><path d="m200.69 181.61c-31.64 0-64.38-6.19-64.38-16.54v-30.4a1 1 0 0 1 1-1h126.77a1 1 0 0 1 1 1v30.4c0 10.35-32.74 16.54-64.39 16.54zm-62.38-45.94v29.4c0 7 25.07 14.54 62.38 14.54s62.39-7.52 62.39-14.54v-29.4z"/><ellipse cx="200.69" cy="134.67" rx="63.38" ry="15.54"/><path d="m200.69 151.21c-31.65 0-64.38-6.18-64.38-16.54s32.73-16.53 64.38-16.53 64.39 6.18 64.39 16.53-32.74 16.54-64.39 16.54zm0-31.07c-37.31 0-62.38 7.51-62.38 14.53s25.07 14.54 62.38 14.54 62.39-7.52 62.39-14.54-25.08-14.53-62.39-14.53z"/><path d="m254.61 164.53a1 1 0 0 1 -1-1v-11.89a1 1 0 0 1 2 0v11.89a1 1 0 0 1 -1 1z"/><path d="m247 167.59a1 1 0 0 1 -1-1v-11.89a1 1 0 0 1 2 0v11.89a1 1 0 0 1 -1 1z"/><path d="m247 209.05a1 1 0 0 1 -1-1v-11.89a1 1 0 0 1 2 0v11.89a1 1 0 0 1 -1 1z"/><path d="m239.33 210.27a1 1 0 0 1 -1-1v-11.89a1 1 0 0 1 2 0v11.89a1 1 0 0 1 -1 1z"/></g><path d="m264.08 93.17v30.4c0 8.58-28.38 15.54-63.39 15.54s-63.38-7-63.38-15.54v-30.4z" fill="#68e1fd"/><path d="m200.69 140.11c-31.64 0-64.38-6.19-64.38-16.54v-30.4a1 1 0 0 1 1-1h126.77a1 1 0 0 1 1 1v30.4c0 10.35-32.74 16.54-64.39 16.54zm-62.38-45.94v29.4c0 7 25.07 14.54 62.38 14.54s62.39-7.52 62.39-14.54v-29.4z" fill="#093f68"/><ellipse cx="200.69" cy="93.17" fill="#68e1fd" rx="63.38" ry="15.54"/><path d="m200.69 109.71c-31.65 0-64.38-6.19-64.38-16.54s32.69-16.53 64.38-16.53 64.39 6.18 64.39 16.53-32.74 16.54-64.39 16.54zm0-31.07c-37.31 0-62.38 7.51-62.38 14.53s25.07 14.54 62.38 14.54 62.39-7.52 62.39-14.54-25.08-14.53-62.39-14.53z" fill="#093f68"/><path d="m254.61 123a1 1 0 0 1 -1-1v-11.86a1 1 0 1 1 2 0v11.86a1 1 0 0 1 -1 1z" fill="#093f68"/><path d="m181.29 205.03h-52.88v-62.29h38.28l14.6 14.19z" fill="#fff"/><path d="m181.29 206h-52.88a1 1 0 0 1 -1-1v-62.3a1 1 0 0 1 1-1h38.28a1 1 0 0 1 .7.28l14.61 14.23a1 1 0 0 1 .3.72v48.07a1 1 0 0 1 -1.01 1zm-51.88-2h50.88v-46.65l-14-13.61h-36.88z" fill="#093f68"/><path d="m166.69 142.74v14.19h14.6z" fill="#70cc40"/><path d="m181.29 157.93h-14.6a1 1 0 0 1 -1-1v-14.19a1 1 0 0 1 1.7-.72l14.61 14.19a1 1 0 0 1 -.7 1.72zm-13.6-2h11.13l-11.13-10.82z" fill="#093f68"/><path d="m154.85 156.1h-18.26a1 1 0 0 1 0-2h18.26a1 1 0 0 1 0 2z" fill="#dfeaef"/><path d="m171.68 168.87h-35.09a1 1 0 0 1 0-2h35.09a1 1 0 0 1 0 2z" fill="#dfeaef"/><path d="m171.68 181.46h-10a1 1 0 0 1 0-2h10a1 1 0 0 1 0 2z" fill="#dfeaef"/><path d="m152.85 181.46h-16.26a1 1 0 0 1 0-2h16.26a1 1 0 0 1 0 2z" fill="#dfeaef"/><path d="m160.27 194.05h-23.68a1 1 0 1 1 0-2h23.68a1 1 0 1 1 0 2z" fill="#dfeaef"/><path d="m283.59 120.45a8.63 8.63 0 0 1 -2.32 5.93 7.7 7.7 0 0 1 -5.61 2.46h-61.66a8.17 8.17 0 0 1 -7.93-8.39 8.64 8.64 0 0 1 2.32-5.93 8.39 8.39 0 0 1 1.45-1.21 16.29 16.29 0 0 1 -.35-3.31c0-8.26 6.33-15 14.14-15a13.42 13.42 0 0 1 7.13 2c.24-10 7.99-18.1 17.54-18.1s17.2 8 17.5 17.91h.81c6.9 0 12.5 5.92 12.5 13.22a13.89 13.89 0 0 1 -.28 2.76 8.42 8.42 0 0 1 4.76 7.66z" fill="#fff"/><path d="m275.66 129.84h-61.66a9.17 9.17 0 0 1 -8.93-9.39 9.55 9.55 0 0 1 2.6-6.61 8.29 8.29 0 0 1 1.07-1 16.28 16.28 0 0 1 -.25-2.87c0-8.81 6.8-16 15.14-16a14.37 14.37 0 0 1 6.22 1.41c1-9.81 8.91-17.54 18.41-17.54 9.73 0 17.66 7.78 18.44 17.88 7.38.08 13.37 6.43 13.37 14.22a15.06 15.06 0 0 1 -.17 2.21 9.48 9.48 0 0 1 4.65 8.24 9.59 9.59 0 0 1 -2.59 6.62 8.65 8.65 0 0 1 -6.3 2.83zm-51.99-33.84c-7.24 0-13.14 6.27-13.14 14a14.94 14.94 0 0 0 .33 3.11 1 1 0 0 1 -.43 1 7.29 7.29 0 0 0 -1.27 1.06 7.6 7.6 0 0 0 -2 5.24 7.18 7.18 0 0 0 6.93 7.39h61.62a6.69 6.69 0 0 0 4.88-2.14 7.6 7.6 0 0 0 2-5.25 7.41 7.41 0 0 0 -4.18-6.78 1 1 0 0 1 -.56-1.11 13.08 13.08 0 0 0 .26-2.56c0-6.74-5.16-12.22-11.5-12.22-.25 0-.5 0-.74 0a1 1 0 0 1 -1.07-1c-.29-9.5-7.54-16.94-16.5-16.94s-16.3 7.81-16.5 17.29a1 1 0 0 1 -.52.86 1 1 0 0 1 -1 0 12.44 12.44 0 0 0 -6.61-1.95z" fill="#093f68"/><path d="m239.06 125.92v-14.56h-8.4v14.56h-4.44l8.64 8.76 8.65-8.76z" fill="#ffbc0e"/><path d="m234.86 135.67a1 1 0 0 1 -.71-.29l-8.64-8.76a1 1 0 0 1 .71-1.7h3.44v-13.56a1 1 0 0 1 1-1h8.4a1 1 0 0 1 1 1v13.56h3.45a1 1 0 0 1 .71 1.7l-8.64 8.76a1 1 0 0 1 -.72.29zm-6.25-8.75 6.25 6.33 6.26-6.33h-2.06a1 1 0 0 1 -1-1v-13.56h-6.4v13.56a1 1 0 0 1 -1 1z" fill="#093f68"/><path d="m259.04 120.11v14.57h-8.4v-14.57h-4.45l8.65-8.75 8.64 8.75z" fill="#f56132"/><path d="m259 135.67h-8.4a1 1 0 0 1 -1-1v-13.56h-3.45a1 1 0 0 1 -.71-1.7l8.65-8.75a1 1 0 0 1 .71-.3 1 1 0 0 1 .71.3l8.65 8.75a1 1 0 0 1 .21 1.09 1 1 0 0 1 -.93.61h-3.44v13.56a1 1 0 0 1 -1 1zm-7.4-2h6.4v-13.56a1 1 0 0 1 1-1h2l-6.25-6.33-6.26 6.33h2.06a1 1 0 0 1 1 1z" fill="#093f68"/></svg>